<svg width="844" height="390" viewBox="0 0 844 390" fill="none" xmlns="http://www.w3.org/2000/svg">
<path d="M0 506L6.02206e-06 0.999969L844 0.999977V506H0Z" fill="url(#paint0_linear_976_565)"/>
<path d="M0 391L6.02206e-06 -114L844 -114V391H0Z" fill="url(#paint1_linear_976_565)"/>
<path d="M844 0.999908H0V560.689H844V0.999908Z" fill="#29224C"/>
<path d="M844 0.999908L844 267.479C791.672 221.369 767.342 147.616 631.098 104.885C443.922 46.1863 322.937 96.5185 204.304 0.999908H844Z" fill="#2F295D"/>
<path d="M844 435.095V564H0V194.953C69.6469 236.492 114.143 303.68 253.819 369.168C268.763 376.172 283.134 382.005 297.02 386.801C300.599 388.04 304.133 389.211 307.632 390.303C309.41 390.866 311.166 391.407 312.921 391.936C313.799 392.206 314.677 392.465 315.555 392.724C316.41 392.972 317.276 393.219 318.132 393.467C318.402 393.546 318.661 393.625 318.942 393.704H318.953C320.337 394.087 321.722 394.469 323.094 394.841C323.443 394.931 323.792 395.032 324.141 395.122C326.707 395.798 329.261 396.451 331.793 397.059C332.727 397.284 333.661 397.498 334.595 397.712C334.888 397.791 335.169 397.859 335.462 397.926C335.462 397.926 335.529 397.937 335.563 397.949C339.333 398.816 343.058 399.615 346.76 400.347C348.403 400.662 350.035 400.978 351.655 401.27C352.938 401.507 354.21 401.732 355.482 401.935C357.08 402.216 358.677 402.486 360.275 402.723C361.176 402.869 362.076 403.004 362.976 403.14C365.407 403.489 367.826 403.826 370.235 404.119C371.788 404.333 373.341 404.513 374.871 404.682C375.051 404.716 375.22 404.727 375.4 404.75C529.593 421.831 632.707 327.923 843.629 434.915C843.752 434.972 843.865 435.039 843.989 435.095H844Z" fill="#241F43"/>
<path d="M390.277 560.689C389.545 561.782 388.769 562.896 387.97 564H0V411.213C68.1502 451.558 147.329 451.31 224.065 455.96C226.743 456.118 229.41 456.287 232.077 456.467C235.071 456.658 238.064 456.872 241.046 457.086H241.058C245.008 457.379 248.935 457.694 252.862 458.032C254.258 458.156 255.653 458.28 257.049 458.415C264.51 459.102 271.926 459.901 279.285 460.858C282.245 461.241 285.204 461.647 288.142 462.086C289.875 462.345 291.608 462.615 293.329 462.896C296.244 463.358 299.147 463.854 302.039 464.383C312.696 466.331 323.207 468.718 333.526 471.668C344.96 474.945 356.157 478.931 367.072 483.795C406.617 501.462 411.152 529.544 390.277 560.689Z" fill="#241F43"/>
<path d="M844 145.398C772.744 138.901 726.346 53.8769 620.925 29.4877C552.415 13.6449 486.155 20.1532 434.626 0.999908H767.714C771.855 14.9848 776.975 30.0957 784.729 45.9498C796.477 69.9562 820.526 86.5421 844 98.7029V145.398Z" fill="#29224C"/>
<path d="M844 383.266V399.221C823.001 387.173 783.615 368.965 711.751 347.031C579.502 306.664 401.058 347.538 228.555 271.195C110.463 218.926 74.4408 149.305 0 106.146V53.798C20.6949 60.1712 43.6967 68.8302 67.43 80.6306C149.377 121.369 178.894 193.287 191.667 169.033C201.615 150.127 120.76 46.1187 84.4788 0.999908H147.677C173.268 44.137 223.187 125.378 280.501 203.004C363.809 315.863 463.784 288.614 617.279 311.877C723.882 328.035 804.613 363.257 844 383.277V383.266Z" fill="#241F43"/>
<path d="M766.172 560.689H728.597C646.673 525.671 465.472 451.569 377.459 441.818C284.507 431.515 115.707 421.111 0 388.265V328.351C35.8674 358.513 79.3435 376.463 129 389.014C202.47 407.583 289.468 414.331 385.37 431.323C568.035 463.685 716.005 534.195 766.172 560.678V560.689Z" fill="#29224C"/>
<defs>
<linearGradient id="paint0_linear_976_565" x1="422" y1="2.47947" x2="422" y2="377.284" gradientUnits="userSpaceOnUse">
<stop stop-color="#6C68C8"/>
<stop offset="0.458333" stop-color="#524F9C"/>
<stop offset="1" stop-color="#343168"/>
</linearGradient>
<linearGradient id="paint1_linear_976_565" x1="422" y1="2.47947" x2="422" y2="377.284" gradientUnits="userSpaceOnUse">
<stop stop-color="#6C68C8"/>
<stop offset="0.458333" stop-color="#524F9C"/>
<stop offset="1" stop-color="#343168"/>
</linearGradient>
</defs>
</svg>
